<svg width="60" height="18" viewBox="0 0 60 18" fill="none" xmlns="http://www.w3.org/2000/svg">
<path d="M0.782 1.094H11.606L11.595 3.778H4.016V7.771H10.583V10.4H4.016V17H0.782V1.094ZM20.0323 17.22C19.2477 17.22 18.4777 17.121 17.7223 16.923C16.967 16.725 16.2777 16.428 15.6543 16.032C15.031 15.636 14.514 15.141 14.1033 14.547C13.7 13.953 13.458 13.2563 13.3773 12.457H16.6663C16.7763 12.941 16.9853 13.348 17.2933 13.678C17.6013 14.008 17.99 14.261 18.4593 14.437C18.9287 14.613 19.4493 14.701 20.0213 14.701C20.608 14.701 21.1433 14.6277 21.6273 14.481C22.1113 14.3343 22.5 14.1143 22.7933 13.821C23.0867 13.5203 23.2333 13.1463 23.2333 12.699C23.2333 12.2957 23.1123 11.9657 22.8703 11.709C22.6357 11.4523 22.3167 11.2433 21.9133 11.082C21.51 10.9207 21.0517 10.7887 20.5383 10.686L17.7883 10.125C16.5857 9.89767 15.6323 9.421 14.9283 8.695C14.2243 7.96167 13.8613 6.98633 13.8393 5.769C13.832 4.77167 14.096 3.91 14.6313 3.184C15.174 2.45067 15.9073 1.886 16.8313 1.49C17.7627 1.094 18.804 0.895999 19.9553 0.895999C21.3267 0.895999 22.478 1.11233 23.4093 1.545C24.348 1.97033 25.0593 2.54967 25.5433 3.283C26.0347 4.009 26.2877 4.81933 26.3023 5.714H23.0793C23.0207 5.15667 22.852 4.713 22.5733 4.383C22.2947 4.053 21.9353 3.81467 21.4953 3.668C21.0627 3.52133 20.5677 3.448 20.0103 3.448C19.585 3.448 19.1963 3.49567 18.8443 3.591C18.4997 3.68633 18.2063 3.822 17.9643 3.998C17.7223 4.16667 17.5353 4.36833 17.4033 4.603C17.2713 4.83767 17.2053 5.10167 17.2053 5.395C17.2053 5.857 17.3593 6.231 17.6673 6.517C17.9753 6.803 18.551 7.03767 19.3943 7.221L22.1223 7.782C23.0977 7.97267 23.8713 8.255 24.4433 8.629C25.0227 9.003 25.4553 9.42467 25.7413 9.894C26.0347 10.3633 26.2253 10.8437 26.3133 11.335C26.4087 11.819 26.4563 12.2663 26.4563 12.677C26.4563 13.535 26.185 14.3087 25.6423 14.998C25.107 15.68 24.359 16.2227 23.3983 16.626C22.4377 17.022 21.3157 17.22 20.0323 17.22ZM39.4558 10.169H32.4928V17H29.2918V1.094H32.4928V7.474H39.4558V1.094H42.6678V17H39.4558V10.169ZM56.6605 1.094H59.8725V17H56.9795L49.4225 6.055V17H46.2215V1.094H49.4005L56.6605 11.621V1.094Z" fill="black"/>
</svg>
