<svg width="11" height="12" viewBox="0 0 11 12" fill="none" xmlns="http://www.w3.org/2000/svg">
<path d="M5.76219 0.949979C5.85108 0.949979 5.93441 0.963757 6.01219 0.991313C6.08997 1.01887 6.16219 1.0662 6.22886 1.13331L10.6289 5.53331C10.7622 5.66665 10.8289 5.82487 10.8289 6.00798C10.8289 6.19109 10.7622 6.34954 10.6289 6.48331C10.4955 6.61665 10.34 6.68331 10.1622 6.68331C9.98441 6.68331 9.82886 6.61665 9.69552 6.48331L6.42886 3.21665L6.42886 10.6833C6.42886 10.8722 6.36486 11.0278 6.23686 11.15C6.10886 11.2722 5.95063 11.3333 5.76219 11.3333C5.5733 11.3333 5.41486 11.2693 5.28686 11.1413C5.15886 11.0133 5.09508 10.8551 5.09552 10.6666L5.09552 3.21665L1.82886 6.48331C1.69552 6.61665 1.53997 6.68331 1.36219 6.68331C1.18441 6.68331 1.02886 6.61665 0.895524 6.48331C0.762191 6.34998 0.695524 6.19153 0.695524 6.00798C0.695524 5.82442 0.762191 5.6662 0.895525 5.53331L5.29553 1.13331C5.36219 1.06665 5.43441 1.01931 5.51219 0.991313C5.58997 0.963313 5.6733 0.949535 5.76219 0.949979Z" fill="#1EB564"/>
</svg>
